<svg xmlns="http://www.w3.org/2000/svg" viewBox="0 0 600 320" role="img" aria-label="Ilustracion de aprendizaje digital">
  <rect width="600" height="320" fill="#f9fbf7"/>
  <circle cx="492" cy="76" r="56" fill="#dff4f1"/>
  <path d="M90 92h186c30 0 54 24 54 54v96H144c-30 0-54-24-54-54z" fill="#ffffff" stroke="#0f766e" stroke-width="8"/>
  <path d="M324 92h186v96c0 30-24 54-54 54H270v-96c0-30 24-54 54-54z" fill="#fae8df" stroke="#d96545" stroke-width="8"/>
  <path d="M142 140h118M142 174h82M142 208h104M350 140h104M350 174h126M350 208h72" stroke="#1d3557" stroke-width="13" stroke-linecap="round"/>
  <circle cx="300" cy="82" r="36" fill="#1d3557"/>
  <path d="M286 84l12 12 28-34" fill="none" stroke="#fff" stroke-width="10" stroke-linecap="round" stroke-linejoin="round"/>
  <path d="M300 250v36M258 286h84" stroke="#0f766e" stroke-width="12" stroke-linecap="round"/>
</svg>
