<svg xmlns="http://www.w3.org/2000/svg" viewBox="0 0 900 620" role="img" aria-label="Ilustracion educativa sobre riesgos de las redes sociales">
  <defs>
    <linearGradient id="riskBg" x1="0" y1="0" x2="1" y2="1">
      <stop stop-color="#fae8df"/>
      <stop offset=".55" stop-color="#ffffff"/>
      <stop offset="1" stop-color="#dff4f1"/>
    </linearGradient>
  </defs>
  <rect width="900" height="620" fill="url(#riskBg)"/>
  <circle cx="170" cy="500" r="110" fill="#1d3557" opacity=".12"/>
  <circle cx="740" cy="130" r="95" fill="#d96545" opacity=".16"/>
  <rect x="330" y="92" width="240" height="430" rx="42" fill="#172026"/>
  <rect x="354" y="136" width="192" height="342" rx="24" fill="#ffffff"/>
  <path d="M396 208h108M396 252h78M396 390h96" stroke="#dde4e8" stroke-width="18" stroke-linecap="round"/>
  <path d="M450 282l-52 92h104z" fill="#d96545"/>
  <path d="M450 310v32M450 362v2" stroke="#fff" stroke-width="13" stroke-linecap="round"/>
  <circle cx="218" cy="230" r="56" fill="#d96545"/>
  <path d="M194 206l48 48M242 206l-48 48" stroke="#fff" stroke-width="13" stroke-linecap="round"/>
  <circle cx="690" cy="260" r="56" fill="#1d3557"/>
  <path d="M666 260h48M690 236v48" stroke="#fff" stroke-width="13" stroke-linecap="round"/>
  <circle cx="690" cy="450" r="56" fill="#0f766e"/>
  <path d="M666 450h48M690 426v48" stroke="#fff" stroke-width="13" stroke-linecap="round"/>
  <path d="M274 240l86 50M636 274l-88 42M640 438l-96-52" stroke="#172026" stroke-width="9" stroke-linecap="round" opacity=".28"/>
</svg>
