<svg xmlns="http://www.w3.org/2000/svg" viewBox="0 0 900 620" role="img" aria-label="Ilustracion educativa sobre ventajas de las redes sociales">
  <defs>
    <linearGradient id="bg" x1="0" y1="0" x2="1" y2="1">
      <stop stop-color="#dff4f1"/>
      <stop offset=".55" stop-color="#f9fbf7"/>
      <stop offset="1" stop-color="#fae8df"/>
    </linearGradient>
  </defs>
  <rect width="900" height="620" fill="url(#bg)"/>
  <circle cx="150" cy="130" r="78" fill="#0f766e" opacity=".16"/>
  <circle cx="760" cy="480" r="120" fill="#d96545" opacity=".16"/>
  <rect x="332" y="90" width="236" height="430" rx="42" fill="#172026"/>
  <rect x="356" y="132" width="188" height="342" rx="24" fill="#ffffff"/>
  <circle cx="450" cy="190" r="46" fill="#0f766e"/>
  <path d="M428 194l16 16 34-46" fill="none" stroke="#fff" stroke-width="14" stroke-linecap="round" stroke-linejoin="round"/>
  <path d="M396 282h108M396 326h82M396 370h118" stroke="#dde4e8" stroke-width="18" stroke-linecap="round"/>
  <circle cx="206" cy="230" r="54" fill="#1d3557"/>
  <path d="M185 232h42M206 211v42" stroke="#fff" stroke-width="12" stroke-linecap="round"/>
  <circle cx="694" cy="238" r="54" fill="#d96545"/>
  <path d="M672 238h44M672 216h44M672 260h30" stroke="#fff" stroke-width="11" stroke-linecap="round"/>
  <circle cx="230" cy="438" r="54" fill="#0f766e"/>
  <path d="M206 442l16 16 36-46" fill="none" stroke="#fff" stroke-width="12" stroke-linecap="round" stroke-linejoin="round"/>
  <circle cx="670" cy="438" r="54" fill="#1d3557"/>
  <path d="M642 438h56M670 410v56" stroke="#fff" stroke-width="12" stroke-linecap="round"/>
  <path d="M259 241l92 44M642 255l-92 38M276 426l82-46M620 424l-82-48" stroke="#172026" stroke-width="9" stroke-linecap="round" opacity=".28"/>
</svg>
